<?xml version="1.0" encoding="utf-8"?>
<!-- Generator: Adobe Illustrator 25.3.1, SVG Export Plug-In . SVG Version: 6.00 Build 0)  -->
<svg version="1.1" id="Layer_1" xmlns="http://www.w3.org/2000/svg" xmlns:xlink="http://www.w3.org/1999/xlink" x="0px" y="0px"
	 viewBox="0 0 23.7 23.7" style="enable-background:new 0 0 23.7 23.7;" xml:space="preserve">
<style type="text/css">
	.st0{fill:url(#SVGID_1_);}
	.st1{fill:#FFFFFF;}
	.st2{fill:url(#SVGID_2_);}
	.st3{fill:url(#SVGID_3_);}
	.st4{fill:url(#SVGID_4_);}
	.st5{fill:url(#SVGID_5_);}
	.st6{fill:#26304E;}
	.st7{fill:url(#SVGID_6_);}
	.st8{fill:url(#SVGID_7_);}
	.st9{fill:#3E4762;}
	.st10{fill:#D97700;}
	.st11{fill:url(#SVGID_8_);}
	.st12{fill:url(#SVGID_9_);}
	.st13{fill:url(#SVGID_10_);}
	.st14{fill:url(#SVGID_11_);}
	.st15{fill:url(#SVGID_12_);}
	.st16{fill:#C54D07;}
	.st17{fill:url(#SVGID_13_);}
	.st18{fill:url(#SVGID_14_);}
	.st19{fill:url(#SVGID_15_);}
	.st20{fill:url(#SVGID_16_);}
	.st21{fill:#6D8091;}
	.st22{fill:#CE6704;}
	.st23{fill:url(#SVGID_17_);}
</style>
<g>
	<linearGradient id="SVGID_1_" gradientUnits="userSpaceOnUse" x1="11.8525" y1="-0.1013" x2="11.8525" y2="23.6037">
		<stop  offset="0" style="stop-color:#E7590D"/>
		<stop  offset="0.5" style="stop-color:#F37918"/>
		<stop  offset="0.7578" style="stop-color:#F7831E"/>
		<stop  offset="1" style="stop-color:#E65816"/>
	</linearGradient>
	<circle class="st0" cx="11.9" cy="11.9" r="11.9"/>
	<g>
		<g>
			<g>
				<g>
					<linearGradient id="SVGID_2_" gradientUnits="userSpaceOnUse" x1="7.3699" y1="12.2577" x2="7.3699" y2="16.3405">
						<stop  offset="0" style="stop-color:#26304E"/>
						<stop  offset="1" style="stop-color:#3C466E"/>
					</linearGradient>
					<path class="st2" d="M9.2,14.3c0,1.2-0.8,2.1-1.8,2.1c-1,0-1.8-1-1.8-2.1s0.8-2.1,1.8-2.1C8.4,12.2,9.2,13.1,9.2,14.3z"/>
					<path class="st9" d="M8,13.6c0,0.4-0.3,0.7-0.6,0.7c-0.3,0-0.6-0.3-0.6-0.7c0-0.4,0.3-0.7,0.6-0.7C7.7,12.9,8,13.2,8,13.6z"/>
				</g>
				<path class="st16" d="M9.7,13.4c0,0-0.1,0-0.1,0c-0.2,0-3.7-0.6-5.6-1.2c-0.3-0.1-0.5-0.5-0.4-0.8C3.8,11,4.1,10.9,4.4,11
					C5.7,11.4,8,11.8,9.1,12v-1.7c0-0.3,0.3-0.6,0.6-0.6c0.3,0,0.6,0.3,0.6,0.6v2.4c0,0.2-0.1,0.3-0.2,0.5
					C10,13.3,9.9,13.4,9.7,13.4z"/>
			</g>
			<g>
				<g>
					
						<linearGradient id="SVGID_3_" gradientUnits="userSpaceOnUse" x1="-694.6983" y1="12.2577" x2="-694.6983" y2="16.3405" gradientTransform="matrix(-1 0 0 1 -678.3632 0)">
						<stop  offset="0" style="stop-color:#26304E"/>
						<stop  offset="1" style="stop-color:#3C466E"/>
					</linearGradient>
					<ellipse class="st3" cx="16.3" cy="14.3" rx="1.8" ry="2.1"/>
					<path class="st9" d="M15.7,13.6c0,0.4,0.3,0.7,0.6,0.7c0.3,0,0.6-0.3,0.6-0.7c0-0.4-0.3-0.7-0.6-0.7
						C16,12.9,15.7,13.2,15.7,13.6z"/>
				</g>
				<path class="st16" d="M14,13.4C14,13.4,14,13.4,14,13.4c0.3,0,3.8-0.6,5.7-1.2c0.3-0.1,0.5-0.5,0.4-0.8
					c-0.1-0.3-0.4-0.5-0.8-0.4c-1.3,0.4-3.5,0.9-4.7,1.1v-1.7c0-0.3-0.3-0.6-0.6-0.6c-0.3,0-0.6,0.3-0.6,0.6v2.4
					c0,0.2,0.1,0.3,0.2,0.5C13.7,13.3,13.8,13.4,14,13.4z"/>
			</g>
		</g>
		<linearGradient id="SVGID_4_" gradientUnits="userSpaceOnUse" x1="11.8525" y1="17.6078" x2="11.8525" y2="19.4377">
			<stop  offset="0" style="stop-color:#3D0D00"/>
			<stop  offset="1" style="stop-color:#5F1803"/>
		</linearGradient>
		<path class="st4" d="M11.9,17.6c0,0-2.8,0-3.9,1.2c-0.2,0.2,0,0.6,0.3,0.6h3.6h3.6c0.3,0,0.5-0.4,0.3-0.6
			C14.6,17.6,11.9,17.6,11.9,17.6z"/>
	</g>
</g>
</svg>
