<svg width="102" height="59" viewBox="0 0 102 59" fill="none" xmlns="http://www.w3.org/2000/svg">
<rect x="1.08182" y="0.5" width="99.8364" height="58" rx="4.5" stroke="#7B61FF" stroke-dasharray="10 5"/>
<path d="M19.3828 31.2625C19.4956 30.8193 19.8946 30.5092 20.3519 30.5092H30.5572C31.0145 30.5092 31.4135 30.8193 31.5263 31.2625L33.1554 37.6625C33.3163 38.2947 32.8386 38.9092 32.1863 38.9092H18.7228C18.0705 38.9092 17.5928 38.2947 17.7537 37.6625L19.3828 31.2625Z" fill="#DD5C3C"/>
<circle cx="25.5818" cy="25" r="9" fill="#D8AE4A"/>
<circle cx="25.0728" cy="24.4" r="8.4" fill="url(#paint0_linear_102_119)"/>
<mask id="path-5-outside-1_102_119" maskUnits="userSpaceOnUse" x="22.5818" y="20" width="6" height="9" fill="black">
<rect fill="white" x="22.5818" y="20" width="6" height="9"/>
<path d="M24.7068 28V22.438L25.6158 23.302H23.6268V21.7H26.8308V28H24.7068Z"/>
</mask>
<path d="M24.7068 28V22.438L25.6158 23.302H23.6268V21.7H26.8308V28H24.7068Z" fill="#FCFCFD"/>
<path d="M24.7068 28H23.7068C23.7068 28.5523 24.1545 29 24.7068 29V28ZM24.7068 22.438L25.3958 21.7132C25.1059 21.4377 24.6799 21.3614 24.3124 21.519C23.945 21.6767 23.7068 22.0382 23.7068 22.438H24.7068ZM25.6158 23.302V24.302C26.0249 24.302 26.3927 24.0528 26.5445 23.6729C26.6962 23.293 26.6013 22.859 26.3048 22.5772L25.6158 23.302ZM23.6268 23.302H22.6268C22.6268 23.8543 23.0745 24.302 23.6268 24.302V23.302ZM23.6268 21.7V20.7C23.0745 20.7 22.6268 21.1477 22.6268 21.7H23.6268ZM26.8308 21.7H27.8308C27.8308 21.1477 27.3831 20.7 26.8308 20.7V21.7ZM26.8308 28V29C27.3831 29 27.8308 28.5523 27.8308 28H26.8308ZM25.7068 28V22.438H23.7068V28H25.7068ZM24.0179 23.1628L24.9269 24.0268L26.3048 22.5772L25.3958 21.7132L24.0179 23.1628ZM25.6158 22.302H23.6268V24.302H25.6158V22.302ZM24.6268 23.302V21.7H22.6268V23.302H24.6268ZM23.6268 22.7H26.8308V20.7H23.6268V22.7ZM25.8308 21.7V28H27.8308V21.7H25.8308ZM26.8308 27H24.7068V29H26.8308V27Z" fill="#D8AE4A" mask="url(#path-5-outside-1_102_119)"/>
<path d="M42.3828 31.2625C42.4956 30.8193 42.8946 30.5092 43.3519 30.5092H53.5572C54.0145 30.5092 54.4135 30.8193 54.5263 31.2625L56.1554 37.6625C56.3163 38.2947 55.8386 38.9092 55.1863 38.9092H41.7228C41.0705 38.9092 40.5928 38.2947 40.7537 37.6625L42.3828 31.2625Z" fill="#DD5C3C"/>
<circle cx="48.5818" cy="25" r="9" fill="#97865E"/>
<circle cx="48.0727" cy="24.4" r="8.4" fill="url(#paint1_linear_102_119)"/>
<mask id="path-10-outside-2_102_119" maskUnits="userSpaceOnUse" x="43.5818" y="19" width="9" height="9" fill="black">
<rect fill="white" x="43.5818" y="19" width="9" height="9"/>
<path d="M45.8338 27V25.695L48.1108 23.589C48.2548 23.451 48.3598 23.331 48.4258 23.229C48.4978 23.127 48.5458 23.037 48.5698 22.959C48.5938 22.875 48.6058 22.797 48.6058 22.725C48.6058 22.569 48.5548 22.449 48.4528 22.365C48.3508 22.275 48.1978 22.23 47.9938 22.23C47.8078 22.23 47.6308 22.281 47.4628 22.383C47.2948 22.479 47.1628 22.623 47.0668 22.815L45.4648 22.014C45.6928 21.582 46.0348 21.231 46.4908 20.961C46.9468 20.691 47.5138 20.556 48.1918 20.556C48.6898 20.556 49.1308 20.637 49.5148 20.799C49.8988 20.961 50.1988 21.189 50.4148 21.483C50.6308 21.777 50.7388 22.125 50.7388 22.527C50.7388 22.731 50.7118 22.935 50.6578 23.139C50.6098 23.343 50.5078 23.559 50.3518 23.787C50.1958 24.009 49.9648 24.258 49.6588 24.534L47.9488 26.091L47.6158 25.353H50.8828V27H45.8338Z"/>
</mask>
<path d="M45.8338 27V25.695L48.1108 23.589C48.2548 23.451 48.3598 23.331 48.4258 23.229C48.4978 23.127 48.5458 23.037 48.5698 22.959C48.5938 22.875 48.6058 22.797 48.6058 22.725C48.6058 22.569 48.5548 22.449 48.4528 22.365C48.3508 22.275 48.1978 22.23 47.9938 22.23C47.8078 22.23 47.6308 22.281 47.4628 22.383C47.2948 22.479 47.1628 22.623 47.0668 22.815L45.4648 22.014C45.6928 21.582 46.0348 21.231 46.4908 20.961C46.9468 20.691 47.5138 20.556 48.1918 20.556C48.6898 20.556 49.1308 20.637 49.5148 20.799C49.8988 20.961 50.1988 21.189 50.4148 21.483C50.6308 21.777 50.7388 22.125 50.7388 22.527C50.7388 22.731 50.7118 22.935 50.6578 23.139C50.6098 23.343 50.5078 23.559 50.3518 23.787C50.1958 24.009 49.9648 24.258 49.6588 24.534L47.9488 26.091L47.6158 25.353H50.8828V27H45.8338Z" fill="#FCFCFD"/>
<path d="M45.8338 27H44.8338C44.8338 27.5523 45.2815 28 45.8338 28V27ZM45.8338 25.695L45.1548 24.9609C44.9502 25.1501 44.8338 25.4162 44.8338 25.695H45.8338ZM48.1108 23.589L48.7898 24.3231C48.7942 24.3191 48.7985 24.3151 48.8027 24.311L48.1108 23.589ZM48.4258 23.229L47.6088 22.6523C47.6011 22.6633 47.5936 22.6745 47.5862 22.6857L48.4258 23.229ZM48.5698 22.959L49.5256 23.2531C49.5276 23.2467 49.5295 23.2402 49.5313 23.2337L48.5698 22.959ZM48.4528 22.365L47.7912 23.1148C47.7997 23.1223 47.8083 23.1297 47.8171 23.1369L48.4528 22.365ZM47.4628 22.383L47.959 23.2512C47.9666 23.2469 47.9742 23.2424 47.9818 23.2378L47.4628 22.383ZM47.0668 22.815L46.6196 23.7094C47.1136 23.9564 47.7143 23.7562 47.9612 23.2622L47.0668 22.815ZM45.4648 22.014L44.5804 21.5472C44.4549 21.7852 44.4305 22.0636 44.5127 22.3198C44.595 22.5759 44.777 22.7881 45.0176 22.9084L45.4648 22.014ZM46.4908 20.961L47.0003 21.8215L47.0003 21.8215L46.4908 20.961ZM49.5148 20.799L49.1261 21.7204L49.1261 21.7204L49.5148 20.799ZM50.4148 21.483L49.6089 22.0751L49.6089 22.0751L50.4148 21.483ZM50.6578 23.139L49.6911 22.8831C49.6888 22.892 49.6865 22.901 49.6844 22.91L50.6578 23.139ZM50.3518 23.787L51.1701 24.362L51.1771 24.3517L50.3518 23.787ZM49.6588 24.534L48.989 23.7914L48.9856 23.7946L49.6588 24.534ZM47.9488 26.091L47.0373 26.5023C47.169 26.7942 47.4325 27.0053 47.7461 27.0702C48.0596 27.1352 48.3853 27.046 48.6221 26.8304L47.9488 26.091ZM47.6158 25.353V24.353C47.2763 24.353 46.96 24.5253 46.7758 24.8105C46.5916 25.0957 46.5647 25.4548 46.7043 25.7643L47.6158 25.353ZM50.8828 25.353H51.8828C51.8828 24.8007 51.4351 24.353 50.8828 24.353V25.353ZM50.8828 27V28C51.4351 28 51.8828 27.5523 51.8828 27H50.8828ZM46.8338 27V25.695H44.8338V27H46.8338ZM46.5128 26.4291L48.7898 24.3231L47.4318 22.8549L45.1548 24.9609L46.5128 26.4291ZM48.8027 24.311C48.9719 24.1489 49.1391 23.9674 49.2654 23.7723L47.5862 22.6857C47.5866 22.6851 47.5839 22.6894 47.5768 22.6986C47.5697 22.7078 47.5594 22.7206 47.545 22.737C47.5158 22.7703 47.4748 22.8135 47.4189 22.867L48.8027 24.311ZM49.2428 23.8057C49.347 23.6581 49.4587 23.4706 49.5256 23.2531L47.614 22.6649C47.6196 22.6468 47.6248 22.6336 47.6282 22.6258C47.6315 22.618 47.6336 22.6141 47.6335 22.6144C47.6333 22.6147 47.6315 22.6181 47.6273 22.6248C47.6232 22.6314 47.6172 22.6406 47.6088 22.6523L49.2428 23.8057ZM49.5313 23.2337C49.5756 23.0787 49.6058 22.9072 49.6058 22.725H47.6058C47.6058 22.6868 47.612 22.6713 47.6083 22.6843L49.5313 23.2337ZM49.6058 22.725C49.6058 22.3302 49.4638 21.9021 49.0885 21.5931L47.8171 23.1369C47.7457 23.0782 47.6855 22.9992 47.6472 22.9091C47.6109 22.8237 47.6058 22.7555 47.6058 22.725H49.6058ZM49.1144 21.6152C48.7572 21.3 48.3233 21.23 47.9938 21.23V23.23C48.0255 23.23 48.0159 23.2339 47.9794 23.2231C47.9396 23.2114 47.8672 23.1819 47.7912 23.1148L49.1144 21.6152ZM47.9938 21.23C47.6143 21.23 47.259 21.3368 46.9438 21.5282L47.9818 23.2378C47.9888 23.2336 47.9934 23.2313 47.9959 23.2302C47.9983 23.2291 47.9991 23.229 47.9984 23.2292C47.9977 23.2294 47.9965 23.2296 47.9951 23.2298C47.9937 23.23 47.9932 23.23 47.9938 23.23V21.23ZM46.9667 21.5148C46.6088 21.7193 46.3466 22.0193 46.1724 22.3678L47.9612 23.2622C47.9718 23.2412 47.9776 23.2358 47.975 23.2387C47.9738 23.24 47.9716 23.2422 47.9683 23.2449C47.9649 23.2475 47.9617 23.2497 47.959 23.2512L46.9667 21.5148ZM47.514 21.9206L45.912 21.1196L45.0176 22.9084L46.6196 23.7094L47.514 21.9206ZM46.3492 22.4808C46.4837 22.2259 46.6892 22.0057 47.0003 21.8215L45.9813 20.1005C45.3804 20.4563 44.9019 20.9381 44.5804 21.5472L46.3492 22.4808ZM47.0003 21.8215C47.2646 21.665 47.6439 21.556 48.1918 21.556V19.556C47.3838 19.556 46.629 19.717 45.9813 20.1005L47.0003 21.8215ZM48.1918 21.556C48.5818 21.556 48.8866 21.6193 49.1261 21.7204L49.9035 19.8776C49.375 19.6547 48.7978 19.556 48.1918 19.556V21.556ZM49.1261 21.7204C49.368 21.8224 49.5143 21.9462 49.6089 22.0751L51.2207 20.8909C50.8834 20.4318 50.4296 20.0996 49.9035 19.8776L49.1261 21.7204ZM49.6089 22.0751C49.6859 22.1799 49.7388 22.3152 49.7388 22.527H51.7388C51.7388 21.9348 51.5757 21.3741 51.2207 20.8909L49.6089 22.0751ZM49.7388 22.527C49.7388 22.6417 49.7238 22.7597 49.6911 22.8831L51.6245 23.3949C51.6999 23.1103 51.7388 22.8203 51.7388 22.527H49.7388ZM49.6844 22.91C49.6721 22.9624 49.6338 23.0655 49.5265 23.2223L51.1771 24.3517C51.3818 24.0525 51.5476 23.7236 51.6312 23.368L49.6844 22.91ZM49.5336 23.2121C49.4367 23.35 49.2649 23.5426 48.989 23.7914L50.3286 25.2766C50.6647 24.9734 50.9549 24.668 51.17 24.3619L49.5336 23.2121ZM48.9856 23.7946L47.2756 25.3516L48.6221 26.8304L50.3321 25.2734L48.9856 23.7946ZM48.8603 25.6797L48.5273 24.9417L46.7043 25.7643L47.0373 26.5023L48.8603 25.6797ZM47.6158 26.353H50.8828V24.353H47.6158V26.353ZM49.8828 25.353V27H51.8828V25.353H49.8828ZM50.8828 26H45.8338V28H50.8828V26Z" fill="#AEAEAE" mask="url(#path-10-outside-2_102_119)"/>
<path d="M63.3828 31.2625C63.4956 30.8193 63.8946 30.5092 64.3519 30.5092H74.5572C75.0145 30.5092 75.4135 30.8193 75.5263 31.2625L77.1554 37.6625C77.3163 38.2947 76.8386 38.9092 76.1863 38.9092H62.7228C62.0705 38.9092 61.5928 38.2947 61.7537 37.6625L63.3828 31.2625Z" fill="#DD5C3C"/>
<circle cx="69.5818" cy="25" r="9" fill="#A37C1D"/>
<circle cx="69.0727" cy="24.4" r="8.4" fill="url(#paint2_linear_102_119)"/>
<mask id="path-15-outside-3_102_119" maskUnits="userSpaceOnUse" x="64.5818" y="19" width="9" height="10" fill="black">
<rect fill="white" x="64.5818" y="19" width="9" height="10"/>
<path d="M69.0118 27.144C68.5798 27.144 68.1418 27.096 67.6978 27C67.2538 26.904 66.8638 26.763 66.5278 26.577L67.2478 25.011C67.5178 25.167 67.7998 25.284 68.0938 25.362C68.3938 25.434 68.6758 25.47 68.9398 25.47C69.1798 25.47 69.3748 25.431 69.5248 25.353C69.6808 25.269 69.7588 25.146 69.7588 24.984C69.7588 24.846 69.7018 24.741 69.5878 24.669C69.4738 24.591 69.2818 24.552 69.0118 24.552H68.1748V23.247L69.8038 21.591L69.9928 22.302H66.8518V20.7H71.5498V22.005L69.9208 23.661L68.9038 23.085H69.4618C70.2538 23.085 70.8568 23.262 71.2708 23.616C71.6848 23.97 71.8918 24.426 71.8918 24.984C71.8918 25.344 71.7898 25.689 71.5858 26.019C71.3878 26.349 71.0758 26.619 70.6498 26.829C70.2298 27.039 69.6838 27.144 69.0118 27.144Z"/>
</mask>
<path d="M69.0118 27.144C68.5798 27.144 68.1418 27.096 67.6978 27C67.2538 26.904 66.8638 26.763 66.5278 26.577L67.2478 25.011C67.5178 25.167 67.7998 25.284 68.0938 25.362C68.3938 25.434 68.6758 25.47 68.9398 25.47C69.1798 25.47 69.3748 25.431 69.5248 25.353C69.6808 25.269 69.7588 25.146 69.7588 24.984C69.7588 24.846 69.7018 24.741 69.5878 24.669C69.4738 24.591 69.2818 24.552 69.0118 24.552H68.1748V23.247L69.8038 21.591L69.9928 22.302H66.8518V20.7H71.5498V22.005L69.9208 23.661L68.9038 23.085H69.4618C70.2538 23.085 70.8568 23.262 71.2708 23.616C71.6848 23.97 71.8918 24.426 71.8918 24.984C71.8918 25.344 71.7898 25.689 71.5858 26.019C71.3878 26.349 71.0758 26.619 70.6498 26.829C70.2298 27.039 69.6838 27.144 69.0118 27.144Z" fill="#FCFCFD"/>
<path d="M67.6978 27L67.4865 27.9774L67.6978 27ZM66.5278 26.577L65.6192 26.1593C65.4006 26.6348 65.5856 27.1984 66.0435 27.4519L66.5278 26.577ZM67.2478 25.011L67.7481 24.1451C67.5045 24.0044 67.2128 23.9728 66.9447 24.058C66.6766 24.1433 66.4568 24.3376 66.3392 24.5933L67.2478 25.011ZM68.0938 25.362L67.8374 26.3286C67.845 26.3306 67.8527 26.3325 67.8604 26.3344L68.0938 25.362ZM69.5248 25.353L69.9862 26.2402C69.9904 26.238 69.9947 26.2358 69.9989 26.2335L69.5248 25.353ZM69.5878 24.669L69.0231 25.4943C69.0332 25.5012 69.0435 25.508 69.0538 25.5145L69.5878 24.669ZM68.1748 24.552H67.1748C67.1748 25.1043 67.6225 25.552 68.1748 25.552V24.552ZM68.1748 23.247L67.4619 22.5457C67.2779 22.7328 67.1748 22.9846 67.1748 23.247H68.1748ZM69.8038 21.591L70.7703 21.3341C70.678 20.9871 70.4068 20.7161 70.0596 20.6243C69.7125 20.5324 69.3427 20.6337 69.0909 20.8897L69.8038 21.591ZM69.9928 22.302V23.302C70.3034 23.302 70.5963 23.1577 70.7856 22.9115C70.9749 22.6654 71.039 22.3452 70.9593 22.0451L69.9928 22.302ZM66.8518 22.302H65.8518C65.8518 22.8543 66.2995 23.302 66.8518 23.302V22.302ZM66.8518 20.7V19.7C66.2995 19.7 65.8518 20.1477 65.8518 20.7H66.8518ZM71.5498 20.7H72.5498C72.5498 20.1477 72.1021 19.7 71.5498 19.7V20.7ZM71.5498 22.005L72.2627 22.7063C72.4467 22.5192 72.5498 22.2674 72.5498 22.005H71.5498ZM69.9208 23.661L69.428 24.5311C69.8218 24.7542 70.3163 24.6849 70.6337 24.3623L69.9208 23.661ZM68.9038 23.085V22.085C68.4497 22.085 68.0526 22.391 67.9368 22.8302C67.8211 23.2693 68.0158 23.7313 68.411 23.9551L68.9038 23.085ZM71.5858 26.019L70.7351 25.4931L70.7283 25.5045L71.5858 26.019ZM70.6498 26.829L70.2077 25.932L70.2026 25.9346L70.6498 26.829ZM69.0118 26.144C68.6544 26.144 68.2873 26.1043 67.9092 26.0226L67.4865 27.9774C67.9964 28.0877 68.5052 28.144 69.0118 28.144V26.144ZM67.9092 26.0226C67.5437 25.9436 67.2487 25.8331 67.0121 25.7021L66.0435 27.4519C66.4789 27.6929 66.9639 27.8644 67.4865 27.9774L67.9092 26.0226ZM67.4364 26.9947L68.1564 25.4287L66.3392 24.5933L65.6192 26.1593L67.4364 26.9947ZM66.7475 25.8769C67.0921 26.0759 67.4559 26.2273 67.8374 26.3286L68.3503 24.3954C68.1438 24.3407 67.9436 24.2581 67.7481 24.1451L66.7475 25.8769ZM67.8604 26.3344C68.2244 26.4217 68.5853 26.47 68.9398 26.47V24.47C68.7663 24.47 68.5632 24.4463 68.3272 24.3896L67.8604 26.3344ZM68.9398 26.47C69.2773 26.47 69.6466 26.4168 69.9862 26.2402L69.0635 24.4658C69.0852 24.4545 69.0909 24.456 69.07 24.4602C69.0486 24.4644 69.007 24.47 68.9398 24.47V26.47ZM69.9989 26.2335C70.1954 26.1277 70.396 25.9679 70.5448 25.7333C70.6966 25.494 70.7588 25.2327 70.7588 24.984H68.7588C68.7588 24.8973 68.7821 24.7785 68.8558 24.6622C68.9266 24.5506 69.0102 24.4943 69.0507 24.4725L69.9989 26.2335ZM70.7588 24.984C70.7588 24.5127 70.5341 24.0839 70.1218 23.8235L69.0538 25.5145C68.9852 25.4711 68.9003 25.3951 68.8372 25.2788C68.7747 25.1636 68.7588 25.0556 68.7588 24.984H70.7588ZM70.1525 23.8437C69.7761 23.5861 69.3222 23.552 69.0118 23.552V25.552C69.0557 25.552 69.0899 25.5536 69.1156 25.5558C69.1415 25.558 69.1553 25.5604 69.1593 25.5612C69.1635 25.5621 69.1524 25.5602 69.1306 25.5519C69.1087 25.5435 69.07 25.5263 69.0231 25.4943L70.1525 23.8437ZM69.0118 23.552H68.1748V25.552H69.0118V23.552ZM69.1748 24.552V23.247H67.1748V24.552H69.1748ZM68.8877 23.9483L70.5167 22.2923L69.0909 20.8897L67.4619 22.5457L68.8877 23.9483ZM68.8374 21.8479L69.0264 22.5589L70.9593 22.0451L70.7703 21.3341L68.8374 21.8479ZM69.9928 21.302H66.8518V23.302H69.9928V21.302ZM67.8518 22.302V20.7H65.8518V22.302H67.8518ZM66.8518 21.7H71.5498V19.7H66.8518V21.7ZM70.5498 20.7V22.005H72.5498V20.7H70.5498ZM70.8369 21.3037L69.2079 22.9597L70.6337 24.3623L72.2627 22.7063L70.8369 21.3037ZM70.4136 22.7909L69.3966 22.2149L68.411 23.9551L69.428 24.5311L70.4136 22.7909ZM68.9038 24.085H69.4618V22.085H68.9038V24.085ZM69.4618 24.085C70.1213 24.085 70.4549 24.234 70.6209 24.376L71.9207 22.856C71.2588 22.29 70.3863 22.085 69.4618 22.085V24.085ZM70.6209 24.376C70.8066 24.5348 70.8918 24.7101 70.8918 24.984H72.8918C72.8918 24.1419 72.563 23.4052 71.9207 22.856L70.6209 24.376ZM70.8918 24.984C70.8918 25.1438 70.8494 25.3084 70.7352 25.4932L72.4364 26.5448C72.7302 26.0696 72.8918 25.5442 72.8918 24.984H70.8918ZM70.7283 25.5045C70.65 25.635 70.5018 25.7871 70.2077 25.9321L71.092 27.7259C71.6498 27.4509 72.1256 27.063 72.4433 26.5335L70.7283 25.5045ZM70.2026 25.9346C69.9682 26.0518 69.5909 26.144 69.0118 26.144V28.144C69.7767 28.144 70.4915 28.0262 71.097 27.7234L70.2026 25.9346Z" fill="#EFB139" mask="url(#path-15-outside-3_102_119)"/>
<defs>
<linearGradient id="paint0_linear_102_119" x1="18.5818" y1="22.5" x2="30.0818" y2="32" gradientUnits="userSpaceOnUse">
<stop stop-color="#FFEA30"/>
<stop offset="1" stop-color="#E9B042"/>
</linearGradient>
<linearGradient id="paint1_linear_102_119" x1="43.0818" y1="17.5" x2="54.5818" y2="32" gradientUnits="userSpaceOnUse">
<stop stop-color="#EBE9DA"/>
<stop offset="1" stop-color="#B9B8AE"/>
</linearGradient>
<linearGradient id="paint2_linear_102_119" x1="64.0818" y1="18" x2="74.5818" y2="31.5" gradientUnits="userSpaceOnUse">
<stop stop-color="#FFCF72"/>
<stop offset="1" stop-color="#ECAF38"/>
</linearGradient>
</defs>
</svg>
